<svg width="366" height="244" viewBox="0 0 366 244" fill="none" xmlns="http://www.w3.org/2000/svg">
<path fill-rule="evenodd" clip-rule="evenodd" d="M191.366 37.3668C176.698 34.2866 162.486 29.1021 148.702 23.5517C128.177 15.3176 107.836 6.1991 85.8173 1.83807C71.6363 -0.967631 55.4426 -1.36409 44.0368 6.47357C33.058 14.0368 29.4899 27.0589 27.5991 39.1356C26.1657 48.2236 25.3118 57.7996 29.2459 66.3386C30.9537 70.0287 33.4849 73.3529 35.9552 76.7075V37.3668H191.336H191.366ZM77.0038 108.15H294.11C298.014 108.15 301.185 111.321 301.185 115.225V204.916C301.185 208.819 298.014 211.991 294.11 211.991H77.0038C73.1002 211.991 69.9285 208.819 69.9285 204.916V115.225C69.9285 111.321 73.1002 108.15 77.0038 108.15V108.15ZM35.9552 137.853C34.3998 140.72 32.7225 143.495 30.9537 146.179C25.0373 155.206 18.1451 163.806 13.5706 173.443C8.99607 183.05 6.89179 194.059 10.8869 203.879C14.8514 213.607 24.3054 220.866 34.5523 226.019C55.3511 236.449 79.901 239.438 103.81 241.115C156.753 244.866 209.969 243.25 263.034 241.603C282.674 240.993 302.405 240.383 321.74 237.242C332.475 235.504 343.545 232.729 351.322 226.05C361.203 217.572 363.673 203.208 357.025 192.595C352.237 184.91 343.82 179.725 335.159 174.785V214.888C335.159 218.792 331.987 221.963 328.083 221.963H43.0304C39.1268 221.963 35.9552 218.792 35.9552 214.888V137.853V137.853ZM335.159 90.8275C343.301 79.9707 349.98 68.7479 350.62 55.9088C351.444 39.471 340.678 23.0028 324.088 15.2261C306.675 7.0835 282.521 8.0899 269.682 21.5999C262.271 29.4071 251.659 34.5306 240.283 37.3668H335.189V90.8275H335.159Z" fill="#F4F4F6"/>
<path d="M255.808 153.132H243.365C242.405 153.132 241.627 154.702 241.627 156.639V163.47C241.627 165.407 242.405 166.977 243.365 166.977H255.808C256.768 166.977 257.546 165.407 257.546 163.47V156.639C257.546 154.702 256.768 153.132 255.808 153.132Z" fill="#761EE6"/>
<path fill-rule="evenodd" clip-rule="evenodd" d="M22.0491 166.216C20.4633 171.37 20.4938 177.103 22.4456 182.593C24.8853 189.485 29.9478 194.578 36.0166 197.201V91.621C30.0088 88.2664 22.7201 87.4735 15.8278 90.1267C7.13623 93.4203 1.37235 101.258 0.0609935 110.102C7.01425 110.529 13.1441 112.999 19.0605 116.567C13.1441 114.372 6.25183 113.243 0 113.762C0.0914902 116.415 0.121987 119.373 1.31136 122.697C2.50073 126.021 5.09295 130.169 7.99014 132.853C11.0398 129.681 14.12 128.309 20.3108 127.18C15.2484 129.589 12.5951 131.45 9.63697 134.469C10.2469 134.896 11.7412 135.719 12.3817 136.085C10.3994 141.575 10.2469 147.766 12.3512 153.682C14.2725 159.049 17.7491 163.349 22.0796 166.216H22.0491ZM335.19 194.547C341.777 191.894 347.083 186.191 349.066 178.598C350.407 173.444 349.98 168.198 348.181 163.593C352.085 160.544 355.073 156.152 356.446 150.876C357.147 148.162 357.361 145.448 357.178 142.795C351.048 142.337 345.528 142.581 338.544 143.984C344.278 141.636 350.377 139.653 356.507 138.738C356.141 137.275 355.622 135.841 355.012 134.499C359.373 131.419 362.759 126.784 364.222 121.081C367.516 108.455 360.258 95.4331 348.029 92.048C343.637 90.8281 339.215 91.0111 335.19 92.3225C335.19 126.296 335.19 156.518 335.19 194.547V194.547ZM59.3161 222.909C67.4893 222.909 74.107 224.343 74.107 226.112C74.107 227.88 67.4893 229.314 59.3161 229.314C51.143 229.314 44.5252 227.88 44.5252 226.112C44.5252 224.343 51.143 222.909 59.3161 222.909ZM318.416 222.909C326.589 222.909 333.207 224.343 333.207 226.112C333.207 227.88 326.589 229.314 318.416 229.314C310.243 229.314 303.625 227.88 303.625 226.112C303.625 224.343 310.243 222.909 318.416 222.909Z" fill="#EBEBEE"/>
<path fill-rule="evenodd" clip-rule="evenodd" d="M35.9844 37.3662H335.188V214.857C335.188 218.761 332.016 221.932 328.113 221.932H43.0596C39.156 221.932 35.9844 218.761 35.9844 214.857V37.3662ZM250.986 156.852C250.407 156.212 249.583 155.846 248.73 155.846C246.991 155.846 245.588 157.31 245.588 159.079C245.588 160.878 246.991 162.311 248.73 162.311C249.339 162.311 249.949 162.128 250.468 161.762L252.725 164.202C252.755 164.233 252.786 164.263 252.847 164.263C252.877 164.263 252.938 164.233 252.938 164.233L253.518 163.684C253.548 163.653 253.579 163.623 253.579 163.562C253.579 163.531 253.548 163.47 253.548 163.44L251.291 161C251.688 160.451 251.901 159.78 251.901 159.079C251.901 158.255 251.596 157.432 251.017 156.822L250.986 156.852ZM250.59 158.682C250.468 158.164 250.132 157.706 249.675 157.462C249.553 157.401 249.461 157.34 249.339 157.31C249.156 157.249 249.096 157.584 249.279 157.645C249.766 157.798 250.163 158.225 250.315 158.804C250.407 159.231 250.376 159.689 250.163 160.085C250.102 160.207 250.01 160.329 249.919 160.421C249.766 160.573 250.01 160.817 250.163 160.664C250.62 160.177 250.803 159.384 250.62 158.682H250.59ZM248.882 157.279C248.821 157.035 248.425 157.127 248.516 157.401C248.577 157.645 248.974 157.554 248.882 157.279ZM250.285 160.786C249.858 161.213 249.309 161.427 248.73 161.427C247.479 161.427 246.473 160.39 246.473 159.109C246.473 157.828 247.479 156.791 248.73 156.791C249.339 156.791 249.919 157.035 250.346 157.493C250.742 157.92 250.986 158.499 250.986 159.109C250.986 159.75 250.742 160.329 250.285 160.786ZM119.179 153.162H227.229C231.041 153.162 234.152 156.273 234.152 160.085C234.152 163.897 231.041 167.008 227.229 167.008H119.179C115.367 167.008 112.257 163.897 112.257 160.085C112.257 156.273 115.367 153.162 119.179 153.162ZM77.033 108.149H294.139C298.043 108.149 301.214 111.321 301.214 115.224V204.915C301.214 208.819 298.043 211.99 294.139 211.99H77.033C73.1294 211.99 69.9577 208.819 69.9577 204.915V115.224C69.9577 111.321 73.1294 108.149 77.033 108.149Z" fill="white"/>
<path fill-rule="evenodd" clip-rule="evenodd" d="M35.9844 37.366H335.188V29.1013C335.188 27.9425 334.242 26.9971 333.083 26.9971H38.1191C36.9603 26.9971 36.0149 27.9425 36.0149 29.1013V37.366H35.9844Z" fill="#3F3D56"/>
<path d="M39.8572 33.89C40.6488 33.89 41.2905 33.221 41.2905 32.3957C41.2905 31.5704 40.6488 30.9014 39.8572 30.9014C39.0656 30.9014 38.4238 31.5704 38.4238 32.3957C38.4238 33.221 39.0656 33.89 39.8572 33.89Z" fill="#C94648"/>
<path d="M45.0134 33.89C45.805 33.89 46.4468 33.221 46.4468 32.3957C46.4468 31.5704 45.805 30.9014 45.0134 30.9014C44.2218 30.9014 43.5801 31.5704 43.5801 32.3957C43.5801 33.221 44.2218 33.89 45.0134 33.89Z" fill="#FFCC00"/>
<path d="M50.199 33.89C50.9906 33.89 51.6323 33.221 51.6323 32.3957C51.6323 31.5704 50.9906 30.9014 50.199 30.9014C49.4074 30.9014 48.7656 31.5704 48.7656 32.3957C48.7656 33.221 49.4074 33.89 50.199 33.89Z" fill="#8CDB26"/>
<path fill-rule="evenodd" clip-rule="evenodd" d="M60.231 223.702C60.536 224.007 60.719 224.464 60.719 224.952C60.719 225.928 59.9871 226.721 59.1027 226.721C58.2182 226.721 57.4863 225.928 57.4863 224.952C57.4863 224.464 57.6693 224.007 57.9743 223.702V223.336C57.6693 223.001 57.4863 222.574 57.4863 222.086C57.4863 221.598 57.6693 221.14 57.9743 220.835V220.469C57.6693 220.164 57.4863 219.707 57.4863 219.219C57.4863 218.731 57.6693 218.274 57.9743 217.969V217.603C57.6693 217.298 57.4863 216.84 57.4863 216.352C57.4863 215.864 57.6693 215.407 57.9743 215.102V214.736C57.6693 214.431 57.4863 214.218 57.4863 213.486C57.4863 213.455 57.4863 213.425 57.4863 213.394V212.51C58.0353 212.632 58.5842 212.693 59.1331 212.693C59.6821 212.693 60.2005 212.632 60.719 212.54V213.394C60.719 213.425 60.719 213.455 60.719 213.486C60.719 214.218 60.536 214.431 60.231 214.736V215.102C60.536 215.407 60.719 215.864 60.719 216.352C60.719 216.84 60.536 217.298 60.231 217.603V217.969C60.536 218.274 60.719 218.731 60.719 219.219C60.719 219.707 60.536 220.164 60.231 220.469V220.835C60.536 221.171 60.719 221.598 60.719 222.086C60.719 222.574 60.536 223.031 60.231 223.336V223.702V223.702Z" fill="#3F3D56"/>
<path fill-rule="evenodd" clip-rule="evenodd" d="M65.6315 198.999C66.6989 200.432 67.3393 202.231 67.3393 204.183C67.3393 208.849 63.6797 212.661 59.1357 212.661C54.6222 212.661 50.9321 208.879 50.9321 204.183C50.9321 202.262 51.542 200.493 52.5789 199.09C51.5115 197.657 50.8711 195.857 50.8711 193.906C50.8711 192.899 51.0541 191.954 51.359 191.039C53.5243 191.466 55.4151 192.076 57.7024 193.235C55.9335 191.862 54.0123 190.612 51.969 189.697C52.2434 189.24 52.5179 188.782 52.8839 188.386C51.664 186.891 50.9016 184.97 50.9016 182.866C50.9016 178.2 54.5612 174.388 59.1052 174.388C62.1854 174.388 64.8996 176.157 66.2719 178.749C64.1372 179.725 62.4903 181.219 61.057 183.049C62.6733 181.646 64.6861 180.487 66.7294 179.908C67.0039 180.762 67.3088 181.676 67.3088 182.866C67.3088 184.055 66.9734 185.641 66.3634 186.83C65.0521 186.19 63.9237 186.129 61.8499 186.525C63.7102 186.678 64.7471 186.952 66.028 187.532C65.8755 187.745 65.5095 188.172 65.357 188.355C66.5769 189.85 67.3393 191.771 67.3393 193.875C67.3393 195.796 66.7294 197.565 65.6925 198.968L65.6315 198.999ZM324.732 198.999C325.799 200.432 326.44 202.231 326.44 204.183C326.44 208.849 322.78 212.661 318.236 212.661C313.722 212.661 310.032 208.879 310.032 204.183C310.032 202.262 310.642 200.493 311.679 199.09C310.612 197.657 309.971 195.857 309.971 193.906C309.971 192.899 310.154 191.954 310.459 191.039C312.624 191.466 314.515 192.076 316.803 193.235C315.034 191.862 313.112 190.612 311.069 189.697C311.344 189.24 311.618 188.782 311.984 188.386C310.764 186.891 310.002 184.97 310.002 182.866C310.002 178.2 313.661 174.388 318.205 174.388C321.286 174.388 324 176.157 325.372 178.749C323.237 179.725 321.591 181.219 320.157 183.049C321.774 181.646 323.786 180.487 325.83 179.908C326.104 180.762 326.409 181.676 326.409 182.866C326.409 184.055 326.074 185.641 325.464 186.83C324.152 186.19 323.024 186.129 320.95 186.525C322.81 186.678 323.847 186.952 325.128 187.532C324.976 187.745 324.61 188.172 324.457 188.355C325.677 189.85 326.44 191.771 326.44 193.875C326.44 195.796 325.83 197.565 324.793 198.968L324.732 198.999Z" fill="#EBEBEE"/>
<path fill-rule="evenodd" clip-rule="evenodd" d="M319.333 223.702C319.638 224.007 319.821 224.464 319.821 224.952C319.821 225.928 319.089 226.721 318.204 226.721C317.32 226.721 316.588 225.928 316.588 224.952C316.588 224.464 316.771 224.007 317.076 223.702V223.336C316.771 223.001 316.588 222.574 316.588 222.086C316.588 221.598 316.771 221.14 317.076 220.835V220.469C316.771 220.164 316.588 219.707 316.588 219.219C316.588 218.731 316.771 218.274 317.076 217.969V217.603C316.771 217.298 316.588 216.84 316.588 216.352C316.588 215.864 316.771 215.407 317.076 215.102V214.736C316.771 214.431 316.588 214.218 316.588 213.486C316.588 213.455 316.588 213.425 316.588 213.394V212.51C317.137 212.632 317.686 212.693 318.235 212.693C318.784 212.693 319.302 212.632 319.821 212.54V213.394C319.821 213.425 319.821 213.455 319.821 213.486C319.821 214.218 319.638 214.431 319.333 214.736V215.102C319.638 215.407 319.821 215.864 319.821 216.352C319.821 216.84 319.638 217.298 319.333 217.603V217.969C319.638 218.274 319.821 218.731 319.821 219.219C319.821 219.707 319.638 220.164 319.333 220.469V220.835C319.638 221.171 319.821 221.598 319.821 222.086C319.821 222.574 319.638 223.031 319.333 223.336V223.702Z" fill="#3F3D56"/>
<path fill-rule="evenodd" clip-rule="evenodd" d="M324.884 199.212C322.353 196.284 318.236 194.119 313.6 193.57C312.35 193.417 311.13 193.417 309.971 193.509C309.971 193.631 309.971 193.753 309.971 193.905C309.971 195.857 310.612 197.656 311.679 199.09C310.642 200.492 310.032 202.261 310.032 204.183C310.032 208.269 312.838 211.685 316.559 212.478C317.107 212.6 317.656 212.661 318.205 212.661C318.754 212.661 319.273 212.6 319.791 212.508C323.542 211.746 326.379 208.3 326.379 204.213C326.379 202.353 325.799 200.645 324.823 199.242L324.884 199.212ZM65.784 199.212C63.2528 196.284 59.1357 194.119 54.5002 193.57C53.2498 193.417 52.03 193.417 50.8711 193.509C50.8711 193.631 50.8711 193.753 50.8711 193.905C50.8711 195.857 51.5115 197.656 52.5789 199.09C51.542 200.492 50.9321 202.261 50.9321 204.183C50.9321 208.269 53.7378 211.685 57.4584 212.478C58.0073 212.6 58.5563 212.661 59.1052 212.661C59.6541 212.661 60.1726 212.6 60.691 212.508C64.4421 211.746 67.2783 208.3 67.2783 204.213C67.2783 202.353 66.6989 200.645 65.723 199.242L65.784 199.212Z" fill="#D3D3D6"/>
</svg>
