<svg width="245" height="208" viewBox="0 0 245 208" fill="none" xmlns="http://www.w3.org/2000/svg">
<path fill-rule="evenodd" clip-rule="evenodd" d="M41.9631 0C36.906 0 32.8173 4.08474 32.8173 9.13694V87.6073H16.3549C7.31665 87.6073 0 94.9168 0 104.054C0 113.083 7.31665 120.393 16.3549 120.393H32.8173V87.6073H51.1089C59.1787 87.6073 65.7422 81.0501 65.7422 72.9881V29.2383H78.5463C83.4958 29.2383 87.5846 25.1535 87.5846 20.1013V9.13694C87.5846 4.08474 83.4958 0 78.5463 0H51.1089H41.9631ZM41.9631 208H51.1089H78.5463C83.4958 208 87.5846 203.915 87.5846 198.863V187.899C87.5846 182.954 83.4958 178.869 78.5463 178.869H65.7422V135.012C65.7422 126.95 59.1787 120.393 51.1089 120.393H32.8173V198.863C32.8173 203.915 36.906 208 41.9631 208ZM203.037 0C208.094 0 212.183 4.08474 212.183 9.13694V87.6073H228.645C237.683 87.6073 245 94.9168 245 104.054C245 113.083 237.683 120.393 228.645 120.393H212.183V87.6073H193.891C185.821 87.6073 179.258 81.0501 179.258 72.9881V29.2383H166.561C161.504 29.2383 157.415 25.1535 157.415 20.1013V9.13694C157.415 4.08474 161.504 0 166.561 0H193.891H203.037ZM203.037 208H193.891H166.561C161.504 208 157.415 203.915 157.415 198.863V187.899C157.415 182.954 161.504 178.869 166.561 178.869H179.258V135.012C179.258 126.95 185.821 120.393 193.891 120.393H212.183V198.863C212.183 203.915 208.094 208 203.037 208Z" fill="black"/>
</svg>
